<svg xmlns="http://www.w3.org/2000/svg" viewBox="0 0 75.87098 24.00064"><title>logo-afp</title><path d="M63.65035.0005a12.11172,12.11172,0,0,0-12.22062,12,12.22265,12.22265,0,0,0,24.44125,0A12.11179,12.11179,0,0,0,63.65035.0005ZM13.519,7.4813H12.502l-3.82582,5.812h4.84286Zm3.94118-3.481V20.00039H13.519V16.66171H6.45891l-2.198,3.33868H0L10.53229,4.00034h6.9279Zm7.22057,7.7612h7.278L29.66,15.253H24.68076v4.74748h-3.9414V4.00034H31.95873V7.49179h-7.278ZM42.29305,4.0109l-7.56324-.01056V20.00039H38.6712V15.25292h3.62185c1.75893,0,5.85025-.56832,5.85025-5.62114S44.052,4.0109,42.29305,4.0109Zm-.37563,7.7506H38.6712V7.49179h3.24622c1.554,0,2.34161.701,2.34161,2.15218S43.47139,11.7615,41.91742,11.7615Z" fill="#fff" fill-rule="evenodd"/></svg>