<?xml version="1.0" encoding="UTF-8"?>
<!DOCTYPE svg PUBLIC "-//W3C//DTD SVG 1.1//EN" "http://www.w3.org/Graphics/SVG/1.1/DTD/svg11.dtd">
<svg xmlns="http://www.w3.org/2000/svg" version="1.1" width="512px" height="512px" style="shape-rendering:geometricPrecision; text-rendering:geometricPrecision; image-rendering:optimizeQuality; fill-rule:evenodd; clip-rule:evenodd" xmlns:xlink="http://www.w3.org/1999/xlink">
<g><path style="opacity:1" fill="#fdbe00" d="M 266.5,-0.5 C 307.833,-0.5 349.167,-0.5 390.5,-0.5C 390.5,19.5 390.5,39.5 390.5,59.5C 359.498,59.3334 328.498,59.5 297.5,60C 290.833,69.6667 284.167,79.3333 277.5,89C 270.174,89.4997 262.841,89.6663 255.5,89.5C 255.5,65.5 255.5,41.5 255.5,17.5C 259.14,11.5174 262.806,5.51736 266.5,-0.5 Z"/></g>
<g><path style="opacity:0.999" fill="#feda2c" d="M 255.5,17.5 C 255.5,41.5 255.5,65.5 255.5,89.5C 210.5,89.5 165.5,89.5 120.5,89.5C 120.5,69.5 120.5,49.5 120.5,29.5C 162.501,29.6667 204.501,29.5 246.5,29C 249.64,25.1882 252.64,21.3549 255.5,17.5 Z"/></g>
<g><path style="opacity:1" fill="#fe9100" d="M 390.5,59.5 C 400.5,59.5 410.5,59.5 420.5,59.5C 420.5,79.5 420.5,99.5 420.5,119.5C 389.16,119.167 357.826,119.5 326.5,120.5C 320.043,129.914 313.709,139.414 307.5,149C 290.17,149.5 272.837,149.667 255.5,149.5C 255.5,129.5 255.5,109.5 255.5,89.5C 262.841,89.6663 270.174,89.4997 277.5,89C 284.167,79.3333 290.833,69.6667 297.5,60C 328.498,59.5 359.498,59.3334 390.5,59.5 Z"/></g>
<g><path style="opacity:1" fill="#fcbf00" d="M 120.5,89.5 C 165.5,89.5 210.5,89.5 255.5,89.5C 255.5,109.5 255.5,129.5 255.5,149.5C 200.5,149.5 145.5,149.5 90.5,149.5C 90.5,129.5 90.5,109.5 90.5,89.5C 100.5,89.5 110.5,89.5 120.5,89.5 Z"/></g>
<g><path style="opacity:1" fill="#fcbe00" d="M 420.5,119.5 C 430.5,119.5 440.5,119.5 450.5,119.5C 450.5,139.5 450.5,159.5 450.5,179.5C 450.5,209.5 450.5,239.5 450.5,269.5C 405.165,269.333 359.832,269.5 314.5,270C 311.073,279.446 307.74,288.946 304.5,298.5C 288.18,299.499 271.847,299.833 255.5,299.5C 255.5,249.5 255.5,199.5 255.5,149.5C 272.837,149.667 290.17,149.5 307.5,149C 313.709,139.414 320.043,129.914 326.5,120.5C 357.826,119.5 389.16,119.167 420.5,119.5 Z"/></g>
<g><path style="opacity:1" fill="#fed92d" d="M 90.5,149.5 C 145.5,149.5 200.5,149.5 255.5,149.5C 255.5,199.5 255.5,249.5 255.5,299.5C 239.163,299.667 222.83,299.5 206.5,299C 203.073,289.554 199.74,280.054 196.5,270.5C 151.172,269.5 105.838,269.167 60.5,269.5C 60.5,239.5 60.5,209.5 60.5,179.5C 60.5,169.5 60.5,159.5 60.5,149.5C 70.5,149.5 80.5,149.5 90.5,149.5 Z"/></g>
<g><path style="opacity:0.975" fill="#47568c" d="M 60.5,179.5 C 60.5,209.5 60.5,239.5 60.5,269.5C 40.1667,269.5 19.8333,269.5 -0.5,269.5C -0.5,268.833 -0.5,268.167 -0.5,267.5C 19.8333,238.167 40.1667,208.833 60.5,179.5 Z"/></g>
<g><path style="opacity:0.975" fill="#2c3b73" d="M 450.5,179.5 C 470.833,208.833 491.167,238.167 511.5,267.5C 511.5,268.167 511.5,268.833 511.5,269.5C 491.167,269.5 470.833,269.5 450.5,269.5C 450.5,239.5 450.5,209.5 450.5,179.5 Z"/></g>
<g><path style="opacity:1" fill="#61729a" d="M -0.5,269.5 C 19.8333,269.5 40.1667,269.5 60.5,269.5C 105.838,269.167 151.172,269.5 196.5,270.5C 199.74,280.054 203.073,289.554 206.5,299C 222.83,299.5 239.163,299.667 255.5,299.5C 255.5,319.5 255.5,339.5 255.5,359.5C 230.5,359.5 205.5,359.5 180.5,359.5C 180.5,369.5 180.5,379.5 180.5,389.5C 205.5,389.5 230.5,389.5 255.5,389.5C 255.5,430.167 255.5,470.833 255.5,511.5C 170.167,511.5 84.8333,511.5 -0.5,511.5C -0.5,430.833 -0.5,350.167 -0.5,269.5 Z"/></g>
<g><path style="opacity:1" fill="#47568b" d="M 450.5,269.5 C 470.833,269.5 491.167,269.5 511.5,269.5C 511.5,350.167 511.5,430.833 511.5,511.5C 426.167,511.5 340.833,511.5 255.5,511.5C 255.5,470.833 255.5,430.167 255.5,389.5C 280.5,389.5 305.5,389.5 330.5,389.5C 330.5,379.5 330.5,369.5 330.5,359.5C 305.5,359.5 280.5,359.5 255.5,359.5C 255.5,339.5 255.5,319.5 255.5,299.5C 271.847,299.833 288.18,299.499 304.5,298.5C 307.74,288.946 311.073,279.446 314.5,270C 359.832,269.5 405.165,269.333 450.5,269.5 Z"/></g>
<g><path style="opacity:1" fill="#feda2c" d="M 255.5,359.5 C 255.5,369.5 255.5,379.5 255.5,389.5C 230.5,389.5 205.5,389.5 180.5,389.5C 180.5,379.5 180.5,369.5 180.5,359.5C 205.5,359.5 230.5,359.5 255.5,359.5 Z"/></g>
<g><path style="opacity:1" fill="#fcbf00" d="M 255.5,359.5 C 280.5,359.5 305.5,359.5 330.5,359.5C 330.5,369.5 330.5,379.5 330.5,389.5C 305.5,389.5 280.5,389.5 255.5,389.5C 255.5,379.5 255.5,369.5 255.5,359.5 Z"/></g>
</svg>
