<svg xmlns="http://www.w3.org/2000/svg" width="103" height="33" viewBox="0 0 103 33"><g id="Gruppe_147" data-name="Gruppe 147" transform="translate(-612.795 -429.674)"><path id="Pfad_258" data-name="Pfad 258" d="M836.081,521.081v1.633a5.091,5.091,0,0,1-5.09,5.093h0a5.093,5.093,0,0,1-5.093-5.093h0v-1.633Z" transform="translate(-181.569 -77.867)" fill="#fff"></path><path id="Pfad_259" data-name="Pfad 259" d="M631.292,438.065H625.88v-3.6h-4.86v6.427h7.133v4.7H621.02V450.8h3.8v4.781H612.795V450.8h2.312V434.455h-2.312v-4.781h18.5Z" fill="#fff"></path><path id="Pfad_260" data-name="Pfad 260" d="M1045.419,488.181c0,5.564-4.037,9.444-8.739,9.444a7.629,7.629,0,0,1-4.977-1.685v4.271h2.625v4.7h-9.875v-4.7h1.529V483.865h-1.529v-4.7h5.8v2.821a7.535,7.535,0,0,1,6.427-3.253C1041.734,478.737,1045.419,482.614,1045.419,488.181Zm-5.643-.04a4,4,0,0,0-3.764-4.227q-.175-.01-.351,0a4.011,4.011,0,0,0-4.157,3.86c0,.124,0,.248,0,.372a4.141,4.141,0,0,0,8.276.34q0-.172-.008-.344Z" transform="translate(-350.941 -42.24)" fill="#fff"></path><path id="Pfad_261" data-name="Pfad 261" d="M1189.95,488.181c0,5.564-4.037,9.444-8.739,9.444a7.629,7.629,0,0,1-4.977-1.685v4.271h2.625v4.7h-9.875v-4.7h1.529V483.865h-1.529v-4.7h5.8v2.821a7.534,7.534,0,0,1,6.427-3.253C1186.265,478.737,1189.95,482.614,1189.95,488.181Zm-5.643-.04a4,4,0,0,0-3.765-4.227q-.175-.01-.351,0a4.011,4.011,0,0,0-4.157,3.86c0,.124,0,.248,0,.372a4.033,4.033,0,0,0,3.746,4.3,3.991,3.991,0,0,0,.408.007,4.046,4.046,0,0,0,4.122-3.968c0-.115,0-.23-.008-.344Z" transform="translate(-474.155 -42.24)" fill="#fff"></path><path id="Pfad_262" data-name="Pfad 262" d="M754.64,478.875a5.751,5.751,0,0,0-5.369,2.9v-2.9h-6.722v4.32h2.121v9.236h-2.345v4.257h10.781v-4.245h-2.752v-5.086c0-2.134,1.4-2.3,4.151-2.3l.5-.011v-6.174Z" transform="translate(-110.377 -41.731)" fill="#fff"></path><path id="Pfad_263" data-name="Pfad 263" d="M912.488,496.986h-6.7l-.732-1.948a6.064,6.064,0,0,1-5.348,2.373c-4.138,0-6.154-2.16-6.154-5.6,0-3.505,2.2-5.56,8.571-5.56h2.563c-.073-2.09-.9-2.6-2.872-2.76a33.37,33.37,0,0,0-4,.023v1.852h-4.761l.02-6.163h8.691c6.447,0,8.748,2.055,8.748,7.225v6.3h1.978Zm-7.8-6.834v-.214h-2.527c-1.868,0-2.71.567-2.71,1.735,0,.961.7,1.522,2.051,1.522a3.05,3.05,0,0,0,3.186-2.9c0-.049,0-.1,0-.148Z" transform="translate(-238.901 -42.021)" fill="#fff"></path></g></svg>
