<?xml version="1.0" encoding="utf-8"?>
<!-- Generator: Adobe Illustrator 23.0.1, SVG Export Plug-In . SVG Version: 6.00 Build 0)  -->
<svg version="1.1" xmlns="http://www.w3.org/2000/svg" xmlns:xlink="http://www.w3.org/1999/xlink" x="0px" y="0px"
	 viewBox="0 0 633.3 87.8" style="enable-background:new 0 0 633.3 87.8;" xml:space="preserve">
<style type="text/css">
	.st0{display:none;}
	.st1{display:inline;}
	.st2{clip-path:url(#SVGID_2_);fill:#FFFFFF;}
	.st3{fill:#FFFFFF;}
</style>
<g id="Calque_3" class="st0">
	<g class="st1">
		<defs>
			<rect id="SVGID_1_" x="0.3" y="4.5" width="626.3" height="93.8"/>
		</defs>
		<clipPath id="SVGID_2_">
			<use xlink:href="#SVGID_1_"  style="overflow:visible;"/>
		</clipPath>
		<path class="st2" d="M588.3,19.7h12.4l19.2-15.2h-18.4L588.3,19.7z M589.3,55.1h-6.9l4-18.5h22.8l-1.7,7.8h15.1l4.1-19.7h-63
			l-2.5,11.9h6.7l-10.5,49.8h-6.7l-2.6,11.9h63l4.2-19.7h-15.1l-1.6,7.8h-22.8l4.2-19.9h6.9l-1.6,7.8h11.8l5.6-26.9h-11.8
			L589.3,55.1z M538.8,44.4h15.7l4.1-19.7h-67.4l-4.2,19.7h15.8l1.7-7.8h8.2l-10.5,49.8h-8.2l-2.6,11.9h35.9l2.6-11.9h-8.2
			l10.5-49.8h8.2L538.8,44.4z M440.6,57.1l4.4-20.5h7.3c6.3,0,9.3,2.7,7.9,9.6c-2.3,10.9-11.9,10.9-14,10.9H440.6z M452.1,98.3h22.2
			l2.6-11.9h-6l-0.9-13c-0.5-8-2.9-9.8-10.9-10.5l0.1-0.4c11.3-1.7,18.1-6.9,20.5-18.5c2.9-13.6-3.8-19.3-18.2-19.3h-39.7l-2.5,11.9
			h6.7l-10.5,49.8h-6.7l-2.6,11.9H439l2.6-11.9h-7.1l3.8-18h4.7c5.7,0,6.1,2.8,6.7,7.7L452.1,98.3z M378.3,55.1h-6.9l4-18.5h22.8
			l-1.7,7.8h15.1l4.1-19.7h-63l-2.5,11.9h6.7l-10.5,49.8h-6.7l-2.6,11.9h63l4.2-19.7h-15.1l-1.7,7.8h-22.8l4.2-19.9h6.9l-1.6,7.8
			h11.8l5.6-26.9h-11.8L378.3,55.1z M296.5,87l4.4-20.6h7.7c7.6,0,10.5,2.8,8.9,10.6c-1.4,6.9-6.8,10-13.3,10H296.5z M303.3,55.1
			l4.1-19.1h6.3c6.5,0,10.9,1.4,9.3,8.9c-1.6,7.8-6.1,10.2-13.4,10.2H303.3z M278.4,86.4h-6.7l-2.6,11.9h38.3
			c13.9,0,25.6-4.7,28.8-19.9c2.1-10.2-2-16.9-12-17.6v-0.2c9.9-1.5,16.3-8.4,18.4-18c2.9-13.7-6.2-17.9-18.4-17.9h-39.5l-2.4,11.9
			h6.7L278.4,86.4z M240.3,86.4h-7.4l-2.6,11.9h34.3l2.6-11.9h-7.3l10.5-49.8h7.3l2.5-11.9h-34.3l-2.4,11.9h7.4L240.3,86.4z
			 M211.8,86.4h-16l10.5-49.8h10l2.5-11.9h-36.3L180,36.6h6.7l-10.5,49.8h-6.7l-2.6,11.9h58.7l3.9-19.8h-16.1L211.8,86.4z
			 M116.9,65.9h-15.4l13.2-26h0.2L116.9,65.9z M119.9,86.4h-7.6l-2.6,11.9h32.2l2.6-11.9h-4.2l-9.4-61.7h-22.7L72.7,86.4h-4.4
			l-2.6,11.9h29.4l2.6-11.9h-7.9l5-9.1h24L119.9,86.4z M45.3,86.4h-16l10.5-49.8h10l2.4-11.9H15.9l-2.5,11.9h6.7L9.6,86.4H2.9
			L0.3,98.3H59l4.3-19.8H46.7L45.3,86.4z"/>
	</g>
</g>
<g id="Calque_1">
	<g>
		<path class="st3" d="M47.2,67.4h16.5l-4.3,20.3H0l2.6-12h6.8l10.6-50h-6.8l2.5-12h36.8l-2.5,12H39.9l-10.6,50h16.2L47.2,67.4z"/>
		<path class="st3" d="M118.9,66.6H94.6l-5.1,9.2h8l-2.6,12H65.1l2.6-12h4.4l36-62h22.9l9.5,62h4.2l-2.6,12h-32.6l2.6-12h7.6
			L118.9,66.6z M114.9,29.1h-0.2l-13.3,26.1h15.6L114.9,29.1z"/>
		<path class="st3" d="M211.5,67.4H228l-4.3,20.3h-59.4l2.6-12h6.8l10.6-50h-6.8l2.5-12h36.8l-2.5,12h-10.1l-10.6,50h16.2
			L211.5,67.4z"/>
		<path class="st3" d="M251.1,25.8h-7.4l2.5-12h34.7l-2.5,12h-7.4l-10.6,50h7.4l-2.6,12h-34.7l2.6-12h7.4L251.1,25.8z"/>
		<path class="st3" d="M292.8,25.8h-6.8l2.5-12h40c12.3,0,21.5,4.2,18.6,18c-2.1,9.6-8.6,16.5-18.6,18.1V50
			c10.1,0.7,14.4,7.4,12.2,17.7c-3.2,15.3-15.1,20-29.1,20h-38.8l2.6-12h6.8L292.8,25.8z M308.3,76.4c6.5,0,12-3.1,13.4-10
			c1.7-7.9-1.3-10.6-9-10.6H305l-4.4,20.7H308.3z M313.7,44.4c7.3,0,11.9-2.4,13.5-10.2c1.7-7.5-2.8-9-9.4-9h-6.4l-4.1,19.2H313.7z"
			/>
		<path class="st3" d="M382.1,44.4l12,0l-2.4,11.4l-12,0l0,0h-7l-4.2,20h23l1.7-8.3h15.4l-4.5,20.3h-63.8l2.6-12h6.8l10.6-50h-6.8
			l2.5-12h63.8l-4,19h-15.3l1.5-7h-23l-4,18.6H382.1L382.1,44.4z"/>
		<path class="st3" d="M454.9,65.4c-0.6-5-1-7.8-6.8-7.8h-4.8l-3.8,18.1h7.2l-2.6,12h-33.3l2.6-12h6.8l10.6-50h-6.8l2.5-12h40.2
			c14.6,0,21.3,5.8,18.4,19.4c-2.5,11.7-9.3,16.8-20.8,18.6l-0.1,0.4c8.2,0.7,10.5,2.5,11.1,10.5l0.9,13h6.1l-2.6,12h-22.4
			L454.9,65.4z M451.4,46.3c2.1,0,11.8,0,14.2-11c1.4-6.9-1.6-9.6-8-9.6h-7.4l-4.4,20.6H451.4z"/>
		<path class="st3" d="M544.5,25.8h-8.3l-10.6,50h8.3l-2.6,12h-36.4l2.6-12h8.3l10.6-50h-8.3l-1.5,7h-16l4-19h68.2l-4,19H543
			L544.5,25.8z"/>
		<path class="st3" d="M595.5,44.4l12,0l-2.4,11.4l-12,0l0,0h-7l-4.2,20h23l1.8-8.3H622l-4.3,20.3h-63.8l2.6-12h6.8l10.6-50h-6.8
			l2.5-12h63.8l-4,19h-15.3l1.5-7h-23l-4,18.6H595.5L595.5,44.4z M602.1,0h16L607,8.7h-12.5L602.1,0z"/>
	</g>
</g>
</svg>
