<svg version="1.1" id="Layer_1" xmlns="http://www.w3.org/2000/svg" x="0" y="0" viewBox="0 0 571.1 134" style="enable-background:new 0 0 571.1 134" xml:space="preserve"><style type="text/css">.st0{fill:#fff}</style><path class="st0" d="M28.8 92.8C8.6 92.8 0 84.7 0 68.7h5.2c0 12.9 6.9 19.6 23.5 19.6 15.3 0 20.7-6 20.7-11.9.1-18.8-47.8-7.9-47.8-30 0-10.2 7-17.1 25.4-17.1 18.9 0 26.1 9.5 26.1 23h-4.9c-.1-11.1-5.9-18.7-21.3-18.7-15.1 0-20.1 5.3-20.1 12.2 0 17.8 47.8 7.7 47.8 30.2 0 8.5-7.3 16.8-25.8 16.8zM112.4 92.2V57.9c0-16.3-3-24.1-21.4-24.1-17.5 0-22.4 8.4-22.4 24.1v34.3h-5.3V7h5.3v35.5c2.5-8.7 8.9-13.3 23.6-13.3 21.6 0 25.4 10.4 25.4 28.9v34l-5.2.1zM155.8 92.8c-24.1 0-29.9-15.5-29.9-31.8 0-16 6-31.7 30-31.7S186 45 186 61c0 16.5-6.2 31.8-30.2 31.8zm.1-58.7c-20 0-24.7 12.8-24.7 27 0 14.5 4.7 27.1 24.6 27.1 20 0 24.9-12.4 24.9-27.1 0-14.3-4.8-27-24.8-27zM200.2 58.6v33.6h-5.3V30h3.1l1.2 13.4c2.4-8.4 9.4-14.2 24.7-14v4.8c-19.5-.4-23.7 8.7-23.7 24.4zM239.4 34.4v39.5c0 10 4.6 14.5 17.7 14.5 1.6 0 3.1-.1 4.9-.2v4.6c-1.6.1-3.1.1-4.6.1-16.4 0-23.2-5.3-23.2-18.9V34.5h-7.5v-3.7l7.5-1V15.2h5.2V30H262v4.5l-22.6-.1zM306.4 93.3c-9.5 0-15.5-3.4-18.4-7.1v30.1h-18.7V30.8h8.4l4.6 9.5c3.1-5.2 10.2-10.6 22-10.6 20.4 0 26.7 16.1 26.7 31.8.1 15.8-5.5 31.8-24.6 31.8zm-6.3-48.2c-10.5 0-12.2 6.6-12.2 16.4 0 9.4 1.3 16.3 12 16.3 10.2 0 11.9-6.7 11.9-16.3.1-9.6-1.6-16.4-11.7-16.4zM370 93.3c-25.8 0-31.9-15.7-31.9-31.8 0-15.9 6.3-31.8 31.6-31.8 23.6 0 29.5 16.3 29.5 32.4 0 1.8 0 3.6-.2 5.4h-41.9c.1 8.2 4 12.5 12.2 12.5 6.9 0 9.8-2.9 10.5-6.4h19.6C398.2 85 388.7 93.3 370 93.3zm-1.3-49.8c-7.5 0-11 4.8-11.6 11.3h22.5c.1-6.4-2.9-11.3-10.9-11.3zM460 92.2l-4.6-9.6c-3.3 4.9-10.4 10.7-22.3 10.7-20.4 0-26.5-16.3-26.5-31.9 0-15.8 5.4-31.7 24.7-31.7 9.5 0 15.5 3.3 18.2 7V7.1h18.9v85.2l-8.4-.1zM437.9 45c-10.2 0-12 6.7-12 16.4 0 9.6 1.8 16.4 11.9 16.4 10.4 0 12.2-6.6 12.2-16.4-.1-9.4-1.4-16.4-12.1-16.4zM489.8 24.7c-7.2 0-12.5-1.7-12.5-10.1 0-8.6 5.3-10.1 12.5-10.1 7.1 0 12.2 1.6 12.2 10.1-.1 8.3-5.1 10.1-12.2 10.1zm-9.5 67.5V30.8h18.9v61.4h-18.9zM559.6 92.2l-4.5-9.6c-4.2 7-10.8 10.7-21.8 10.7-14.5 0-25.5-6-25.5-18.9 0-11.8 8.1-16.7 25.3-18.5l16.1-1.7c0-7.1-2.7-10.8-10.8-10.8-7.7 0-9.9 3.6-9.9 8.6h-18.3c0-13.1 5.3-22.2 27.7-22.2 26.3 0 30.1 11.8 30.1 27.7v34.8l-8.4-.1zm-22.4-24.3c-7.5.7-9.8 2.9-9.8 5.8 0 3.7 2.9 6.4 9.8 6.4 8.4 0 11.9-6 12-13.6l-12 1.4z"/><g><path class="st0" d="M307.9 127.1v-18.3h12.9v3.4h-9v3.9h8.9v3.4h-8.9v4.1h9v3.4l-12.9.1zM330.4 127.1l-7.1-18.3h4.4l5.1 14.1 5-14.1h4.4l-7 18.3h-4.8zM343.9 117.9c0-5.5 4-9.5 9.5-9.5s9.6 3.9 9.6 9.5c0 5.5-4 9.5-9.6 9.5-5.5 0-9.5-4-9.5-9.5zm15.1 0c0-3.4-2.2-6-5.6-6s-5.5 2.6-5.5 6 2.2 6 5.5 6c3.4 0 5.6-2.6 5.6-6zM367.1 127.1v-18.3h3.9v14.9h7.7v3.4h-11.6zM385.5 127.1l-7.1-18.3h4.4l5.1 14.1 5-14.1h4.4l-7 18.3h-4.8zM400.5 127.1v-18.3h12.9v3.4h-9v3.9h8.9v3.4h-8.9v4.1h9v3.4l-12.9.1zM426.5 127.1v-18.3h12v2h-9.7v5.9h9.5v2h-9.5v6.3h9.7v2l-12 .1zM448.9 127.1l-7.3-18.3h2.6l6.2 15.8 6.2-15.8h2.6l-7.4 18.3h-2.9zM462.9 127.1v-18.3h12v2h-9.7v5.9h9.5v2h-9.5v6.3h9.7v2l-12 .1zM490.4 127.1l-4.7-7.3h-3.6v7.3h-2.3v-18.3h7.3c3.3 0 5.7 2.1 5.7 5.5 0 3.3-2.2 5.1-4.7 5.3l4.9 7.5h-2.6zm.1-12.8c0-2.1-1.5-3.5-3.6-3.5h-4.8v7h4.8c2.2 0 3.6-1.5 3.6-3.5zM502.7 127.1v-7.7l-7.2-10.5h2.7l5.7 8.5 5.7-8.5h2.7l-7.2 10.5v7.7h-2.4zM515.9 127.1v-18.3h6.2c5.7 0 9.4 4 9.4 9.2s-3.7 9.1-9.4 9.1h-6.2zm13.3-9.2c0-3.9-2.5-7.1-7-7.1h-4V125h4c4.4 0 7-3.1 7-7.1zM548.5 127.1l-1.6-4.1h-9.1l-1.6 4.1h-2.6l7.3-18.3h2.8l7.4 18.3h-2.6zm-6.2-16-3.9 9.8h7.8l-3.9-9.8zM558.5 127.1v-7.7l-7.2-10.5h2.7l5.7 8.5 5.7-8.5h2.7l-7.2 10.5v7.7h-2.4z"/></g></svg>